<?xml version="1.0" encoding="UTF-8" standalone="no"?>
<!DOCTYPE svg PUBLIC "-//W3C//DTD SVG 1.1//EN"
 "http://www.w3.org/Graphics/SVG/1.1/DTD/svg11.dtd">
<!-- Generated by graphviz version 2.43.0 (0)
 -->
<!-- Title: search_tree Pages: 1 -->
<svg width="3481pt" height="218pt"
 viewBox="0.00 0.00 3481.00 218.00" xmlns="http://www.w3.org/2000/svg" xmlns:xlink="http://www.w3.org/1999/xlink">
<g id="graph0" class="graph" transform="scale(1 1) rotate(0) translate(4 214)">
<title>search_tree</title>
<polygon fill="white" stroke="transparent" points="-4,4 -4,-214 3477,-214 3477,4 -4,4"/>
<!-- 0 -->
<g id="node1" class="node">
<title>0</title>
<polygon fill="none" stroke="black" points="1486,-210 1366,-210 1366,-174 1486,-174 1486,-210"/>
<text text-anchor="middle" x="1426" y="-189.5" font-family="Times,serif" font-size="10.00">depth=0, uncovered=492</text>
</g>
<!-- 1 -->
<g id="node2" class="node">
<title>1</title>
<polygon fill="none" stroke="green" points="110,-123 0,-123 0,-87 110,-87 110,-123"/>
<text text-anchor="middle" x="55" y="-108" font-family="Times,serif" font-size="10.00">depth=1, uncovered=0</text>
<text text-anchor="middle" x="55" y="-97" font-family="Times,serif" font-size="10.00">[SOL]</text>
</g>
<!-- 0&#45;&gt;1 -->
<g id="edge1" class="edge">
<title>0&#45;&gt;1</title>
<path fill="none" stroke="black" d="M1365.97,-190.73C1114.74,-189.45 158.09,-182.8 100,-156 88.52,-150.7 78.7,-140.94 71.19,-131.44"/>
<polygon fill="black" stroke="black" points="73.94,-129.27 65.2,-123.28 68.29,-133.41 73.94,-129.27"/>
<text text-anchor="middle" x="166.5" y="-144.8" font-family="Times,serif" font-size="14.00">Constraint::Ne(SrcPt, 8)</text>
</g>
<!-- 2 -->
<g id="node3" class="node">
<title>2</title>
<polygon fill="none" stroke="green" points="266,-123 156,-123 156,-87 266,-87 266,-123"/>
<text text-anchor="middle" x="211" y="-108" font-family="Times,serif" font-size="10.00">depth=1, uncovered=0</text>
<text text-anchor="middle" x="211" y="-97" font-family="Times,serif" font-size="10.00">[SOL]</text>
</g>
<!-- 0&#45;&gt;2 -->
<g id="edge2" class="edge">
<title>0&#45;&gt;2</title>
<path fill="none" stroke="black" d="M1365.65,-190.53C1133.11,-188.53 305.59,-179.79 255,-156 243.67,-150.67 234.05,-140.91 226.73,-131.41"/>
<polygon fill="black" stroke="black" points="229.56,-129.35 220.89,-123.25 223.86,-133.42 229.56,-129.35"/>
<text text-anchor="middle" x="317" y="-144.8" font-family="Times,serif" font-size="14.00">Constraint::Ne(Tos, 8)</text>
</g>
<!-- 3 -->
<g id="node4" class="node">
<title>3</title>
<polygon fill="none" stroke="green" points="413,-123 303,-123 303,-87 413,-87 413,-123"/>
<text text-anchor="middle" x="358" y="-108" font-family="Times,serif" font-size="10.00">depth=1, uncovered=0</text>
<text text-anchor="middle" x="358" y="-97" font-family="Times,serif" font-size="10.00">[SOL]</text>
</g>
<!-- 0&#45;&gt;3 -->
<g id="edge3" class="edge">
<title>0&#45;&gt;3</title>
<path fill="none" stroke="black" d="M1365.65,-190.27C1152.38,-187.54 444.6,-176.92 401,-156 389.94,-150.69 380.6,-141.06 373.48,-131.66"/>
<polygon fill="black" stroke="black" points="376.18,-129.42 367.58,-123.22 370.44,-133.43 376.18,-129.42"/>
<text text-anchor="middle" x="474.5" y="-144.8" font-family="Times,serif" font-size="14.00">Constraint::Ne(DstPt, 123)</text>
</g>
<!-- 4 -->
<g id="node5" class="node">
<title>4</title>
<polygon fill="none" stroke="green" points="583,-123 473,-123 473,-87 583,-87 583,-123"/>
<text text-anchor="middle" x="528" y="-108" font-family="Times,serif" font-size="10.00">depth=1, uncovered=0</text>
<text text-anchor="middle" x="528" y="-97" font-family="Times,serif" font-size="10.00">[SOL]</text>
</g>
<!-- 0&#45;&gt;4 -->
<g id="edge4" class="edge">
<title>0&#45;&gt;4</title>
<path fill="none" stroke="black" d="M1365.99,-191.37C1182.92,-192.11 639.76,-191.27 569,-156 558.23,-150.63 549.29,-140.99 542.54,-131.6"/>
<polygon fill="black" stroke="black" points="545.4,-129.58 536.96,-123.18 539.56,-133.45 545.4,-129.58"/>
<text text-anchor="middle" x="639" y="-144.8" font-family="Times,serif" font-size="14.00">Constraint::Ne(DstPt, 11)</text>
</g>
<!-- 5 -->
<g id="node6" class="node">
<title>5</title>
<polygon fill="none" stroke="green" points="746,-123 636,-123 636,-87 746,-87 746,-123"/>
<text text-anchor="middle" x="691" y="-108" font-family="Times,serif" font-size="10.00">depth=1, uncovered=0</text>
<text text-anchor="middle" x="691" y="-97" font-family="Times,serif" font-size="10.00">[SOL]</text>
</g>
<!-- 0&#45;&gt;5 -->
<g id="edge5" class="edge">
<title>0&#45;&gt;5</title>
<path fill="none" stroke="black" d="M1365.84,-190.86C1206.96,-190.1 784.52,-185.3 729,-156 718.77,-150.6 710.49,-141.09 704.31,-131.8"/>
<polygon fill="black" stroke="black" points="707.21,-129.83 699.02,-123.11 701.22,-133.47 707.21,-129.83"/>
<text text-anchor="middle" x="809" y="-144.8" font-family="Times,serif" font-size="14.00">Constraint::Ne(SrcIpAddr, 0)</text>
</g>
<!-- 6 -->
<g id="node7" class="node">
<title>6</title>
<polygon fill="none" stroke="green" points="929,-123 819,-123 819,-87 929,-87 929,-123"/>
<text text-anchor="middle" x="874" y="-108" font-family="Times,serif" font-size="10.00">depth=1, uncovered=0</text>
<text text-anchor="middle" x="874" y="-97" font-family="Times,serif" font-size="10.00">[SOL]</text>
</g>
<!-- 0&#45;&gt;6 -->
<g id="edge6" class="edge">
<title>0&#45;&gt;6</title>
<path fill="none" stroke="black" d="M1365.7,-189.87C1237.6,-187.06 946.85,-178.27 908,-156 898.57,-150.6 891.21,-141.39 885.79,-132.34"/>
<polygon fill="black" stroke="black" points="888.84,-130.62 881,-123.48 882.68,-133.95 888.84,-130.62"/>
<text text-anchor="middle" x="976" y="-144.8" font-family="Times,serif" font-size="14.00">Constraint::Packets &gt;= 1</text>
</g>
<!-- 7 -->
<g id="node8" class="node">
<title>7</title>
<polygon fill="none" stroke="green" points="1088,-123 978,-123 978,-87 1088,-87 1088,-123"/>
<text text-anchor="middle" x="1033" y="-108" font-family="Times,serif" font-size="10.00">depth=1, uncovered=0</text>
<text text-anchor="middle" x="1033" y="-97" font-family="Times,serif" font-size="10.00">[SOL]</text>
</g>
<!-- 0&#45;&gt;7 -->
<g id="edge7" class="edge">
<title>0&#45;&gt;7</title>
<path fill="none" stroke="black" d="M1365.79,-191.85C1275.34,-192.03 1109.79,-187.82 1061,-156 1052.55,-150.49 1046.41,-141.51 1042.06,-132.67"/>
<polygon fill="black" stroke="black" points="1045.2,-131.1 1038.03,-123.3 1038.77,-133.86 1045.2,-131.1"/>
<text text-anchor="middle" x="1147.5" y="-144.8" font-family="Times,serif" font-size="14.00">Constraint::Ne(SrcIpAddr, 888)</text>
</g>
<!-- 8 -->
<g id="node9" class="node">
<title>8</title>
<polygon fill="none" stroke="green" points="1284,-123 1174,-123 1174,-87 1284,-87 1284,-123"/>
<text text-anchor="middle" x="1229" y="-108" font-family="Times,serif" font-size="10.00">depth=1, uncovered=0</text>
<text text-anchor="middle" x="1229" y="-97" font-family="Times,serif" font-size="10.00">[SOL]</text>
</g>
<!-- 0&#45;&gt;8 -->
<g id="edge8" class="edge">
<title>0&#45;&gt;8</title>
<path fill="none" stroke="black" d="M1365.84,-185.43C1321.38,-180.19 1265.63,-170.88 1248,-156 1241.06,-150.15 1236.65,-141.47 1233.85,-132.99"/>
<polygon fill="black" stroke="black" points="1237.22,-132.04 1231.25,-123.29 1230.46,-133.86 1237.22,-132.04"/>
<text text-anchor="middle" x="1335" y="-144.8" font-family="Times,serif" font-size="14.00">Constraint::Ne(DstIpAddr, 888)</text>
</g>
<!-- 9 -->
<g id="node10" class="node">
<title>9</title>
<polygon fill="none" stroke="green" points="1481,-123 1371,-123 1371,-87 1481,-87 1481,-123"/>
<text text-anchor="middle" x="1426" y="-108" font-family="Times,serif" font-size="10.00">depth=1, uncovered=0</text>
<text text-anchor="middle" x="1426" y="-97" font-family="Times,serif" font-size="10.00">[SOL]</text>
</g>
<!-- 0&#45;&gt;9 -->
<g id="edge9" class="edge">
<title>0&#45;&gt;9</title>
<path fill="none" stroke="black" d="M1426,-173.8C1426,-162.16 1426,-146.55 1426,-133.24"/>
<polygon fill="black" stroke="black" points="1429.5,-133.18 1426,-123.18 1422.5,-133.18 1429.5,-133.18"/>
<text text-anchor="middle" x="1506" y="-144.8" font-family="Times,serif" font-size="14.00">Constraint::Ne(DstIpAddr, 0)</text>
</g>
<!-- 10 -->
<g id="node11" class="node">
<title>10</title>
<polygon fill="none" stroke="green" points="1664,-123 1554,-123 1554,-87 1664,-87 1664,-123"/>
<text text-anchor="middle" x="1609" y="-108" font-family="Times,serif" font-size="10.00">depth=1, uncovered=0</text>
<text text-anchor="middle" x="1609" y="-97" font-family="Times,serif" font-size="10.00">[SOL]</text>
</g>
<!-- 0&#45;&gt;10 -->
<g id="edge10" class="edge">
<title>0&#45;&gt;10</title>
<path fill="none" stroke="black" d="M1486.08,-183.7C1525.13,-177.88 1571.55,-168.63 1587,-156 1594.18,-150.13 1599.08,-141.46 1602.4,-132.97"/>
<polygon fill="black" stroke="black" points="1605.79,-133.87 1605.61,-123.28 1599.15,-131.67 1605.79,-133.87"/>
<text text-anchor="middle" x="1674.5" y="-144.8" font-family="Times,serif" font-size="14.00">Constraint::Ne(SrcPt, 5353)</text>
</g>
<!-- 11 -->
<g id="node12" class="node">
<title>11</title>
<polygon fill="none" stroke="green" points="1840,-123 1730,-123 1730,-87 1840,-87 1840,-123"/>
<text text-anchor="middle" x="1785" y="-108" font-family="Times,serif" font-size="10.00">depth=1, uncovered=0</text>
<text text-anchor="middle" x="1785" y="-97" font-family="Times,serif" font-size="10.00">[SOL]</text>
</g>
<!-- 0&#45;&gt;11 -->
<g id="edge11" class="edge">
<title>0&#45;&gt;11</title>
<path fill="none" stroke="black" d="M1486.32,-190.9C1568.88,-189.72 1711.79,-183.59 1755,-156 1763.74,-150.42 1770.29,-141.3 1775,-132.37"/>
<polygon fill="black" stroke="black" points="1778.18,-133.82 1779.26,-123.28 1771.85,-130.85 1778.18,-133.82"/>
<text text-anchor="middle" x="1855.5" y="-144.8" font-family="Times,serif" font-size="14.00">Constraint::Ne(SrcIpAddr, 666)</text>
</g>
<!-- 12 -->
<g id="node13" class="node">
<title>12</title>
<polygon fill="none" stroke="green" points="2036,-123 1926,-123 1926,-87 2036,-87 2036,-123"/>
<text text-anchor="middle" x="1981" y="-108" font-family="Times,serif" font-size="10.00">depth=1, uncovered=0</text>
<text text-anchor="middle" x="1981" y="-97" font-family="Times,serif" font-size="10.00">[SOL]</text>
</g>
<!-- 0&#45;&gt;12 -->
<g id="edge12" class="edge">
<title>0&#45;&gt;12</title>
<path fill="none" stroke="black" d="M1486.03,-189.86C1614.32,-187 1906.79,-178.12 1946,-156 1955.69,-150.53 1963.32,-141.14 1968.95,-131.96"/>
<polygon fill="black" stroke="black" points="1972.12,-133.45 1973.91,-123 1966,-130.05 1972.12,-133.45"/>
<text text-anchor="middle" x="2048" y="-144.8" font-family="Times,serif" font-size="14.00">Constraint::Ne(DstIpAddr, 666)</text>
</g>
<!-- 13 -->
<g id="node14" class="node">
<title>13</title>
<polygon fill="none" stroke="green" points="2233,-123 2123,-123 2123,-87 2233,-87 2233,-123"/>
<text text-anchor="middle" x="2178" y="-108" font-family="Times,serif" font-size="10.00">depth=1, uncovered=0</text>
<text text-anchor="middle" x="2178" y="-97" font-family="Times,serif" font-size="10.00">[SOL]</text>
</g>
<!-- 0&#45;&gt;13 -->
<g id="edge13" class="edge">
<title>0&#45;&gt;13</title>
<path fill="none" stroke="black" d="M1486.06,-190.9C1647.38,-190.23 2081.83,-185.67 2139,-156 2149.37,-150.62 2157.84,-141.11 2164.21,-131.82"/>
<polygon fill="black" stroke="black" points="2167.31,-133.45 2169.66,-123.12 2161.38,-129.74 2167.31,-133.45"/>
<text text-anchor="middle" x="2225.5" y="-144.8" font-family="Times,serif" font-size="14.00">Constraint::Ne(SrcPt, 11)</text>
</g>
<!-- 14 -->
<g id="node15" class="node">
<title>14</title>
<polygon fill="none" stroke="green" points="2395,-123 2285,-123 2285,-87 2395,-87 2395,-123"/>
<text text-anchor="middle" x="2340" y="-108" font-family="Times,serif" font-size="10.00">depth=1, uncovered=0</text>
<text text-anchor="middle" x="2340" y="-97" font-family="Times,serif" font-size="10.00">[SOL]</text>
</g>
<!-- 0&#45;&gt;14 -->
<g id="edge14" class="edge">
<title>0&#45;&gt;14</title>
<path fill="none" stroke="black" d="M1486.15,-191.42C1671.66,-192.32 2226.78,-191.96 2299,-156 2309.77,-150.64 2318.71,-141 2325.46,-131.61"/>
<polygon fill="black" stroke="black" points="2328.44,-133.45 2331.04,-123.18 2322.6,-129.59 2328.44,-133.45"/>
<text text-anchor="middle" x="2389" y="-144.8" font-family="Times,serif" font-size="14.00">Constraint::Ne(SrcPt, 123)</text>
</g>
<!-- 15 -->
<g id="node16" class="node">
<title>15</title>
<polygon fill="none" stroke="green" points="2564,-123 2454,-123 2454,-87 2564,-87 2564,-123"/>
<text text-anchor="middle" x="2509" y="-108" font-family="Times,serif" font-size="10.00">depth=1, uncovered=0</text>
<text text-anchor="middle" x="2509" y="-97" font-family="Times,serif" font-size="10.00">[SOL]</text>
</g>
<!-- 0&#45;&gt;15 -->
<g id="edge15" class="edge">
<title>0&#45;&gt;15</title>
<path fill="none" stroke="black" d="M1486.12,-190.31C1701.14,-187.66 2421.69,-177.25 2466,-156 2477.07,-150.69 2486.4,-141.07 2493.52,-131.67"/>
<polygon fill="black" stroke="black" points="2496.56,-133.43 2499.42,-123.23 2490.82,-129.42 2496.56,-133.43"/>
<text text-anchor="middle" x="2561" y="-144.8" font-family="Times,serif" font-size="14.00">Constraint::Duration &gt;= 0.0</text>
</g>
<!-- 16 -->
<g id="node17" class="node">
<title>16</title>
<polygon fill="none" stroke="green" points="2741,-123 2631,-123 2631,-87 2741,-87 2741,-123"/>
<text text-anchor="middle" x="2686" y="-108" font-family="Times,serif" font-size="10.00">depth=1, uncovered=0</text>
<text text-anchor="middle" x="2686" y="-97" font-family="Times,serif" font-size="10.00">[SOL]</text>
</g>
<!-- 0&#45;&gt;16 -->
<g id="edge16" class="edge">
<title>0&#45;&gt;16</title>
<path fill="none" stroke="black" d="M1486.22,-190.6C1724.27,-188.84 2589.28,-180.75 2642,-156 2653.33,-150.68 2662.95,-140.91 2670.28,-131.42"/>
<polygon fill="black" stroke="black" points="2673.14,-133.43 2676.11,-123.26 2667.45,-129.36 2673.14,-133.43"/>
<text text-anchor="middle" x="2737" y="-144.8" font-family="Times,serif" font-size="14.00">Constraint::Ne(DstPt, 5353)</text>
</g>
<!-- 17 -->
<g id="node18" class="node">
<title>17</title>
<polygon fill="none" stroke="black" points="2918,-123 2808,-123 2808,-87 2918,-87 2918,-123"/>
<text text-anchor="middle" x="2863" y="-102.5" font-family="Times,serif" font-size="10.00">depth=1, uncovered=1</text>
</g>
<!-- 0&#45;&gt;17 -->
<g id="edge17" class="edge">
<title>0&#45;&gt;17</title>
<path fill="none" stroke="black" d="M1486.38,-190.81C1745.96,-189.83 2756.79,-184.19 2818,-156 2829.49,-150.71 2839.31,-140.95 2846.82,-131.45"/>
<polygon fill="black" stroke="black" points="2849.71,-133.42 2852.8,-123.28 2844.07,-129.28 2849.71,-133.42"/>
<text text-anchor="middle" x="2906.5" y="-144.8" font-family="Times,serif" font-size="14.00">Constraint::Ne(SrcPt, 67)</text>
</g>
<!-- 18 -->
<g id="node19" class="node">
<title>18</title>
<polygon fill="none" stroke="green" points="2416,-36 2306,-36 2306,0 2416,0 2416,-36"/>
<text text-anchor="middle" x="2361" y="-21" font-family="Times,serif" font-size="10.00">depth=2, uncovered=0</text>
<text text-anchor="middle" x="2361" y="-10" font-family="Times,serif" font-size="10.00">[SOL]</text>
</g>
<!-- 17&#45;&gt;18 -->
<g id="edge18" class="edge">
<title>17&#45;&gt;18</title>
<path fill="none" stroke="black" d="M2807.96,-94.6C2789.58,-91.76 2768.95,-88.9 2750,-87 2710.48,-83.04 2427.35,-88.94 2393,-69 2383.74,-63.62 2376.72,-54.38 2371.66,-45.28"/>
<polygon fill="black" stroke="black" points="2374.65,-43.44 2367.07,-36.03 2368.38,-46.55 2374.65,-43.44"/>
<text text-anchor="middle" x="2463" y="-57.8" font-family="Times,serif" font-size="14.00">Constraint::Ne(DstPt, 37)</text>
</g>
<!-- 19 -->
<g id="node20" class="node">
<title>19</title>
<polygon fill="none" stroke="green" points="2579,-36 2469,-36 2469,0 2579,0 2579,-36"/>
<text text-anchor="middle" x="2524" y="-21" font-family="Times,serif" font-size="10.00">depth=2, uncovered=0</text>
<text text-anchor="middle" x="2524" y="-10" font-family="Times,serif" font-size="10.00">[SOL]</text>
</g>
<!-- 17&#45;&gt;19 -->
<g id="edge19" class="edge">
<title>17&#45;&gt;19</title>
<path fill="none" stroke="black" d="M2807.91,-95.05C2789.53,-92.24 2768.91,-89.28 2750,-87 2705.92,-81.69 2588.07,-93.44 2551,-69 2542.65,-63.5 2536.68,-54.51 2532.52,-45.67"/>
<polygon fill="black" stroke="black" points="2535.71,-44.23 2528.68,-36.3 2529.23,-46.88 2535.71,-44.23"/>
<text text-anchor="middle" x="2620.5" y="-57.8" font-family="Times,serif" font-size="14.00">Constraint::Ne(Flags, 17)</text>
</g>
<!-- 20 -->
<g id="node21" class="node">
<title>20</title>
<polygon fill="none" stroke="green" points="2741,-36 2631,-36 2631,0 2741,0 2741,-36"/>
<text text-anchor="middle" x="2686" y="-21" font-family="Times,serif" font-size="10.00">depth=2, uncovered=0</text>
<text text-anchor="middle" x="2686" y="-10" font-family="Times,serif" font-size="10.00">[SOL]</text>
</g>
<!-- 17&#45;&gt;20 -->
<g id="edge20" class="edge">
<title>17&#45;&gt;20</title>
<path fill="none" stroke="black" d="M2807.93,-97.42C2768.72,-91.72 2720.36,-82.27 2705,-69 2698.13,-63.06 2693.74,-54.37 2690.93,-45.89"/>
<polygon fill="black" stroke="black" points="2694.3,-44.95 2688.31,-36.22 2687.55,-46.78 2694.3,-44.95"/>
<text text-anchor="middle" x="2782" y="-57.8" font-family="Times,serif" font-size="14.00">Constraint::Ne(DstPt, 1080)</text>
</g>
<!-- 21 -->
<g id="node22" class="node">
<title>21</title>
<polygon fill="none" stroke="green" points="2918,-36 2808,-36 2808,0 2918,0 2918,-36"/>
<text text-anchor="middle" x="2863" y="-21" font-family="Times,serif" font-size="10.00">depth=2, uncovered=0</text>
<text text-anchor="middle" x="2863" y="-10" font-family="Times,serif" font-size="10.00">[SOL]</text>
</g>
<!-- 17&#45;&gt;21 -->
<g id="edge21" class="edge">
<title>17&#45;&gt;21</title>
<path fill="none" stroke="black" d="M2863,-86.8C2863,-75.16 2863,-59.55 2863,-46.24"/>
<polygon fill="black" stroke="black" points="2866.5,-46.18 2863,-36.18 2859.5,-46.18 2866.5,-46.18"/>
<text text-anchor="middle" x="2929.5" y="-57.8" font-family="Times,serif" font-size="14.00">Constraint::Ne(Flags, 2)</text>
</g>
<!-- 22 -->
<g id="node23" class="node">
<title>22</title>
<polygon fill="none" stroke="green" points="3074,-36 2964,-36 2964,0 3074,0 3074,-36"/>
<text text-anchor="middle" x="3019" y="-21" font-family="Times,serif" font-size="10.00">depth=2, uncovered=0</text>
<text text-anchor="middle" x="3019" y="-10" font-family="Times,serif" font-size="10.00">[SOL]</text>
</g>
<!-- 17&#45;&gt;22 -->
<g id="edge22" class="edge">
<title>17&#45;&gt;22</title>
<path fill="none" stroke="black" d="M2918.01,-100.66C2944.48,-96.5 2975.13,-87.64 2997,-69 3004.06,-62.99 3008.93,-54.28 3012.26,-45.8"/>
<polygon fill="black" stroke="black" points="3015.64,-46.74 3015.5,-36.14 3009,-44.51 3015.64,-46.74"/>
<text text-anchor="middle" x="3077.5" y="-57.8" font-family="Times,serif" font-size="14.00">Constraint::Ne(Bytes, 58)</text>
</g>
<!-- 23 -->
<g id="node24" class="node">
<title>23</title>
<polygon fill="none" stroke="green" points="3238,-36 3128,-36 3128,0 3238,0 3238,-36"/>
<text text-anchor="middle" x="3183" y="-21" font-family="Times,serif" font-size="10.00">depth=2, uncovered=0</text>
<text text-anchor="middle" x="3183" y="-10" font-family="Times,serif" font-size="10.00">[SOL]</text>
</g>
<!-- 17&#45;&gt;23 -->
<g id="edge23" class="edge">
<title>17&#45;&gt;23</title>
<path fill="none" stroke="black" d="M2918.12,-102.92C2990.93,-100.56 3114.35,-93.03 3152,-69 3160.82,-63.37 3167.54,-54.24 3172.44,-45.32"/>
<polygon fill="black" stroke="black" points="3175.63,-46.76 3176.89,-36.24 3169.34,-43.68 3175.63,-46.76"/>
<text text-anchor="middle" x="3236" y="-57.8" font-family="Times,serif" font-size="14.00">Constraint::Ne(DstPt, 23)</text>
</g>
<!-- 24 -->
<g id="node25" class="node">
<title>24</title>
<polygon fill="none" stroke="green" points="3401,-36 3291,-36 3291,0 3401,0 3401,-36"/>
<text text-anchor="middle" x="3346" y="-21" font-family="Times,serif" font-size="10.00">depth=2, uncovered=0</text>
<text text-anchor="middle" x="3346" y="-10" font-family="Times,serif" font-size="10.00">[SOL]</text>
</g>
<!-- 17&#45;&gt;24 -->
<g id="edge24" class="edge">
<title>17&#45;&gt;24</title>
<path fill="none" stroke="black" d="M2918.39,-102.26C3030.52,-98.36 3276.63,-87.77 3310,-69 3319.65,-63.57 3327.38,-54.36 3333.17,-45.31"/>
<polygon fill="black" stroke="black" points="3336.31,-46.87 3338.31,-36.46 3330.26,-43.35 3336.31,-46.87"/>
<text text-anchor="middle" x="3399.5" y="-57.8" font-family="Times,serif" font-size="14.00">Constraint::Ne(DstPt, 514)</text>
</g>
</g>
</svg>
